{"title":"Slices Of Life 2010 XViD DVDRiP - DTRG - SAFCuk009","uid":6456373,"size":1540783712,"categoryP":"video","categoryS":"movies","magnet":"?xt=urn:btih:d8bb2aa7dbea68cb952e1163941960f594b36159&amp;dn=Slices+Of+Life+2010+XViD+DVDRiP+-+DTRG+-+SAFCuk009&amp;tr=udp%3A%2F%2Ftracker.openbittorrent.com%3A80&amp;tr=udp%3A%2F%2Fopen.demonii.com%3A1337&amp;tr=udp%3A%2F%2Ftracker.coppersurfer.tk%3A6969&amp;tr=udp%3A%2F%2Fexodus.desync.com%3A6969","seeders":0,"leechers":2,"uploader":"SAFCukO09","files":3,"time":1307604281,"description":"Format                           : AVI\nFormat/Info                      : Audio Video Interleave\nFile size                        : 1.43 GiB\nDuration                         : 1h 45mn\nOverall bit rate                 : 1 938 Kbps\nWriting library                  : VirtualDub build 32839/release\n\nVideo\nID                               : 0\nFormat                           : MPEG-4 Visual\nFormat profile                   : Advanced Simple@L5\nFormat settings, BVOP            : 2\nFormat settings, QPel            : No\nFormat settings, GMC             : No warppoints\nFormat settings, Matrix          : Default (H.263)\nMuxing mode                      : Packed bitstream\nCodec ID                         : XVID\nCodec ID/Hint                    : XviD\nDuration                         : 1h 45mn\nBit rate                         : 1 735 Kbps\nWidth                            : 720 pixels\nHeight                           : 384 pixels\nDisplay aspect ratio             : 1.875\nFrame rate                       : 29.970 fps\nColor space                      : YUV\nChroma subsampling               : 4:2:0\nBit depth                        : 8 bits\nScan type                        : Progressive\nCompression mode                 : Lossy\nBits/(Pixel*Frame)               : 0.209\nStream size                      : 1.28 GiB (89%)\nWriting library                  : XviD 63\n\nAudio\nID                               : 1\nFormat                           : AC-3\nFormat/Info                      : Audio Coding 3\nMode extension                   : CM (complete main)\nCodec ID                         : 2000\nDuration                         : 1h 45mn\nBit rate mode                    : Constant\nBit rate                         : 192 Kbps\nChannel(s)                       : 2 channels\nChannel positions                : Front: L R\nSampling rate                    : 48.0 KHz\nBit depth                        : 16 bits\nCompression mode                 : Lossy\nStream size                      : 146 MiB (10%)\nAlignment                        : Aligned on interleaves\nInterleave, duration             : 33 ms (1.00 video frame)\nInterleave, preload duration     : 512 ms\n\n\n\n &lt;a href=&quot;\nhttp://www.imdb.com/title/tt1584730/&quot; rel=&quot;nofollow&quot; target=&quot;_NEW&quot;&gt;\nhttp://www.imdb.com/title/tt1584730/&lt;/a&gt;\n\n\n\n\n\n\n\n\nStoryline\n\nSexual Parasites, Disembowelment, Zombies, Serial Killers, Demon Children, Violent Vixens, Rabid Office Workers and Angry Embryos all spring to life from the flesh covered sketch books featured in Anthony G. Sumner's (Gallery of Fear) SLICES OF LIFE. Mira (Kaylee Williams) awakens in front of a seedy roadside motel with amnesia. She searches for clues to her identity in the pages of three bound sketchbooks, in which each book represents a different aspect of everyday life, maybe her life. WORK LIFE A lowly clerk at a nano technology firm unleashes a deadly virus at the office headquarters, giving new meaning to the term corporate zombie. HOME LIFE As local girls begin to disappear, a young pregnant woman is haunted by visions of evil demonic children hell bent on stealing her unborn fetus. SEX LIFE A young brother and sister on the run from a sexually abusive home life, take refuge in a.\n\n\n\n\n\n\n\n\n\n\n\n\n\n\n\nSource Used\n\nNTSC DVD-R STOCK .........Thanks\n\n\n\nGreetz to IMAGiNE,Flawl3ss,DiLLoN,BDK,NOiR,TOXiC,THC,Ez,Rx,Boobyblue,TaRiQ786,LKRG,EP1C","torrent":{"xt":"urn:btih:d8bb2aa7dbea68cb952e1163941960f594b36159","amp;dn":"Slices+Of+Life+2010+XViD+DVDRiP+-+DTRG+-+SAFCuk009","amp;tr":["udp%3A%2F%2Ftracker.openbittorrent.com%3A80","udp%3A%2F%2Fopen.demonii.com%3A1337","udp%3A%2F%2Ftracker.coppersurfer.tk%3A6969","udp%3A%2F%2Fexodus.desync.com%3A6969"],"infoHash":"d8bb2aa7dbea68cb952e1163941960f594b36159","infoHashBuffer":{"type":"Buffer","data":[216,187,42,167,219,234,104,203,149,46,17,99,148,25,96,245,148,179,97,89]},"announce":[],"urlList":[]}}